<svg xmlns="http://www.w3.org/2000/svg" width="108" height="108">
	<rect width="108" height="108" fill="#06F" rx="16"/>
	<path fill="#FFF" d="M37.97 21.18v14l3.2-5.1h28.86v-8.9c0-2.04.5-3.18 3.84-3.18h1.28C78.5 18 79 19.14 79 21.18v66.14c0 2.04-.5 3.18-3.85 3.18h-1.28c-3.34 0-3.84-1.14-3.84-3.18v-8.9H37.97v8.9c0 2.04-.5 3.18-3.84 3.18h-1.28c-3.34 0-3.85-1.14-3.85-3.18V21.18c0-2.04.5-3.18 3.85-3.18h1.28c3.34 0 3.84 1.14 3.84 3.18Zm32.06 36.89H37.97v17.8l3.2-5.08h28.86V58.07Zm0-7.64V37.71H37.97v17.81l3.2-5.09h28.86Z"/>
</svg>